<svg width="22" height="22" viewBox="0 0 22 22" fill="none" xmlns="http://www.w3.org/2000/svg">
<path d="M8.6905 11.0352C8.6905 9.7401 9.7401 8.68994 11.0352 8.68994C12.3303 8.68994 13.3804 9.7401 13.3804 11.0352C13.3804 12.3303 12.3303 13.3804 11.0352 13.3804C9.7401 13.3804 8.6905 12.3303 8.6905 11.0352ZM7.42271 11.0352C7.42271 13.0304 9.04001 14.6477 11.0352 14.6477C13.0304 14.6477 14.6477 13.0304 14.6477 11.0352C14.6477 9.04001 13.0304 7.42271 11.0352 7.42271C9.04001 7.42271 7.42271 9.04001 7.42271 11.0352ZM13.9465 7.27947C13.9464 7.44644 13.9959 7.60968 14.0886 7.74855C14.1813 7.88742 14.3131 7.99568 14.4673 8.05964C14.6215 8.1236 14.7913 8.14038 14.9551 8.10787C15.1188 8.07537 15.2693 7.99502 15.3874 7.877C15.5055 7.75898 15.586 7.60859 15.6186 7.44484C15.6513 7.28109 15.6346 7.11134 15.5708 6.95705C15.5069 6.80276 15.3988 6.67087 15.26 6.57805C15.1212 6.48523 14.958 6.43565 14.791 6.43558H14.7907C14.5669 6.43569 14.3523 6.52462 14.194 6.68285C14.0357 6.84107 13.9467 7.05566 13.9465 7.27947ZM8.19298 16.7617C7.50707 16.7304 7.13426 16.6162 6.88651 16.5197C6.55805 16.3918 6.3237 16.2395 6.0773 15.9934C5.8309 15.7474 5.67837 15.5132 5.55106 15.1848C5.45448 14.9371 5.34023 14.5642 5.30905 13.8783C5.27495 13.1367 5.26814 12.914 5.26814 11.0353C5.26814 9.15652 5.27551 8.93437 5.30905 8.19219C5.34029 7.50628 5.45538 7.13409 5.55106 6.88572C5.67893 6.55726 5.83123 6.32291 6.0773 6.07651C6.32336 5.83011 6.55749 5.67758 6.88651 5.55028C7.13415 5.4537 7.50707 5.33944 8.19298 5.30826C8.93454 5.27416 9.1573 5.26735 11.0352 5.26735C12.9131 5.26735 13.1361 5.27472 13.8783 5.30826C14.5642 5.3395 14.9363 5.4546 15.1847 5.55028C15.5132 5.67758 15.7475 5.83044 15.9939 6.07651C16.2403 6.32257 16.3923 6.55726 16.5202 6.88572C16.6167 7.13336 16.731 7.50628 16.7622 8.19219C16.7963 8.93437 16.8031 9.15652 16.8031 11.0353C16.8031 12.914 16.7963 13.1361 16.7622 13.8783C16.7309 14.5642 16.6161 14.937 16.5202 15.1848C16.3923 15.5132 16.24 15.7476 15.9939 15.9934C15.7479 16.2393 15.5132 16.3918 15.1847 16.5197C14.9371 16.6162 14.5642 16.7305 13.8783 16.7617C13.1367 16.7958 12.9139 16.8026 11.0352 16.8026C9.15646 16.8026 8.93432 16.7958 8.19298 16.7617ZM8.13472 4.04261C7.38579 4.07671 6.87402 4.19547 6.42709 4.36938C5.96423 4.54897 5.57239 4.78991 5.18084 5.18084C4.78929 5.57177 4.54897 5.96423 4.36938 6.42709C4.19547 6.8743 4.07671 7.38579 4.04261 8.13472C4.00794 8.88484 4 9.12466 4 11.0352C4 12.9457 4.00794 13.1855 4.04261 13.9357C4.07671 14.6847 4.19547 15.1961 4.36938 15.6433C4.54897 16.1059 4.78935 16.4988 5.18084 16.8895C5.57234 17.2803 5.96423 17.5209 6.42709 17.701C6.87486 17.8749 7.38579 17.9937 8.13472 18.0278C8.88524 18.0619 9.12466 18.0704 11.0352 18.0704C12.9457 18.0704 13.1855 18.0625 13.9357 18.0278C14.6847 17.9937 15.1961 17.8749 15.6433 17.701C16.1059 17.5209 16.498 17.2805 16.8895 16.8895C17.2811 16.4986 17.5209 16.1059 17.701 15.6433C17.8749 15.1961 17.9942 14.6846 18.0278 13.9357C18.0619 13.185 18.0698 12.9457 18.0698 11.0352C18.0698 9.12466 18.0619 8.88484 18.0278 8.13472C17.9937 7.38573 17.8749 6.87402 17.701 6.42709C17.5209 5.96451 17.2805 5.57239 16.8895 5.18084C16.4986 4.78929 16.1059 4.54897 15.6439 4.36938C15.1961 4.19547 14.6846 4.07615 13.9362 4.04261C13.1861 4.0085 12.9463 4 11.0358 4C9.12522 4 8.88524 4.00794 8.13472 4.04261Z" fill="#B6B6B6"/>
</svg>
