<svg width="231" height="17" viewBox="0 0 231 17" fill="none" xmlns="http://www.w3.org/2000/svg">
<path d="M7.30437 16L3.66062 4.13661H3.57588C3.59 4.41908 3.61118 4.84277 3.63943 5.40769C3.66768 5.97261 3.69592 6.57991 3.72417 7.22957C3.75242 7.86511 3.76654 8.44415 3.76654 8.96671V16H0.906616V0.874183H5.27065L8.85085 12.441H8.9144L12.7064 0.874183H17.0705V16H14.0834V8.8396C14.0834 8.35941 14.0905 7.80861 14.1046 7.1872C14.1329 6.56578 14.1541 5.97968 14.1682 5.42888C14.1964 4.86395 14.2176 4.44026 14.2317 4.1578H14.147L10.249 16H7.30437ZM35.0426 8.41591C35.0426 9.98357 34.7814 11.3535 34.2588 12.5257C33.7504 13.6838 32.9666 14.5877 31.9073 15.2374C30.8481 15.887 29.4923 16.2118 27.8399 16.2118C26.2016 16.2118 24.8458 15.887 23.7724 15.2374C22.7132 14.5877 21.9223 13.6768 21.3998 12.5045C20.8913 11.3323 20.6371 9.96238 20.6371 8.39472C20.6371 6.82706 20.8913 5.46418 21.3998 4.30609C21.9223 3.148 22.7132 2.25118 23.7724 1.61565C24.8458 0.965984 26.2087 0.641153 27.8611 0.641153C29.4993 0.641153 30.8481 0.965984 31.9073 1.61565C32.9666 2.25118 33.7504 3.15506 34.2588 4.32728C34.7814 5.48537 35.0426 6.84825 35.0426 8.41591ZM24.0055 8.41591C24.0055 9.99769 24.3091 11.2476 24.9164 12.1656C25.5237 13.0695 26.4982 13.5214 27.8399 13.5214C29.2098 13.5214 30.1914 13.0695 30.7845 12.1656C31.3777 11.2476 31.6743 9.99769 31.6743 8.41591C31.6743 6.82 31.3777 5.57011 30.7845 4.66623C30.1914 3.76235 29.2169 3.31041 27.8611 3.31041C26.5052 3.31041 25.5237 3.76235 24.9164 4.66623C24.3091 5.57011 24.0055 6.82 24.0055 8.41591ZM43.3025 0.874183C45.3221 0.874183 46.8474 1.15664 47.8784 1.72157C48.9094 2.28649 49.4248 3.28217 49.4248 4.7086C49.4248 5.57011 49.2201 6.29745 48.8105 6.89061C48.415 7.48378 47.8431 7.84392 47.0945 7.97103V8.07695C47.603 8.17581 48.062 8.35235 48.4715 8.60657C48.8811 8.86078 49.2059 9.22798 49.446 9.70817C49.6861 10.1884 49.8062 10.8239 49.8062 11.6148C49.8062 12.9847 49.3119 14.0581 48.3232 14.8348C47.3346 15.6116 45.9788 16 44.2558 16H38.5995V0.874183H43.3025ZM43.6626 6.86943C44.5948 6.86943 45.2374 6.72114 45.5904 6.42455C45.9576 6.12797 46.1412 5.69721 46.1412 5.13229C46.1412 4.55325 45.9294 4.13661 45.5057 3.8824C45.082 3.62818 44.4112 3.50108 43.4932 3.50108H41.7984V6.86943H43.6626ZM41.7984 9.41158V13.3519H43.8957C44.856 13.3519 45.5269 13.1683 45.9082 12.8011C46.2895 12.4198 46.4802 11.9184 46.4802 11.297C46.4802 10.7321 46.2825 10.2802 45.887 9.9412C45.5057 9.58812 44.8066 9.41158 43.7897 9.41158H41.7984ZM58.9129 16H52.0279V14.1781L53.871 13.3307V3.54345L52.0279 2.69606V0.874183H58.9129V2.69606L57.0698 3.54345V13.3307L58.9129 14.1781V16ZM61.9142 16V0.874183H65.113V13.3519H71.2566V16H61.9142ZM83.0232 16H74.3163V0.874183H83.0232V3.50108H77.5152V6.82706H82.6418V9.45395H77.5152V13.3519H83.0232V16ZM98.9399 3.3316C97.7112 3.3316 96.772 3.7906 96.1224 4.7086C95.4727 5.6266 95.1479 6.88355 95.1479 8.47946C95.1479 10.0895 95.4445 11.3394 96.0376 12.2291C96.6449 13.1048 97.6123 13.5426 98.9399 13.5426C99.5613 13.5426 100.176 13.472 100.783 13.3307C101.404 13.1895 102.075 12.9918 102.796 12.7376V15.428C102.132 15.6964 101.475 15.8941 100.825 16.0212C100.176 16.1483 99.4483 16.2118 98.6433 16.2118C97.0898 16.2118 95.8046 15.8941 94.7877 15.2585C93.785 14.6089 93.0435 13.705 92.5633 12.5469C92.0832 11.3747 91.8431 10.0118 91.8431 8.45828C91.8431 6.93298 92.1185 5.58423 92.6693 4.41201C93.2201 3.2398 94.018 2.3218 95.0631 1.65801C96.1224 0.994229 97.4146 0.662337 98.9399 0.662337C99.6884 0.662337 100.437 0.761199 101.185 0.958922C101.948 1.14252 102.675 1.39674 103.368 1.72157L102.329 4.32728C101.765 4.05894 101.193 3.82591 100.614 3.62818C100.049 3.43046 99.4907 3.3316 98.9399 3.3316ZM118.826 16H115.627V9.47514H109.632V16H106.433V0.874183H109.632V6.80588H115.627V0.874183H118.826V16ZM131.763 16H123.056V0.874183H131.763V3.50108H126.255V6.82706H131.381V9.45395H126.255V13.3519H131.763V16ZM141.753 3.3316C140.524 3.3316 139.585 3.7906 138.935 4.7086C138.285 5.6266 137.961 6.88355 137.961 8.47946C137.961 10.0895 138.257 11.3394 138.85 12.2291C139.458 13.1048 140.425 13.5426 141.753 13.5426C142.374 13.5426 142.988 13.472 143.596 13.3307C144.217 13.1895 144.888 12.9918 145.608 12.7376V15.428C144.945 15.6964 144.288 15.8941 143.638 16.0212C142.988 16.1483 142.261 16.2118 141.456 16.2118C139.903 16.2118 138.617 15.8941 137.601 15.2585C136.598 14.6089 135.856 13.705 135.376 12.5469C134.896 11.3747 134.656 10.0118 134.656 8.45828C134.656 6.93298 134.931 5.58423 135.482 4.41201C136.033 3.2398 136.831 2.3218 137.876 1.65801C138.935 0.994229 140.227 0.662337 141.753 0.662337C142.501 0.662337 143.25 0.761199 143.998 0.958922C144.761 1.14252 145.488 1.39674 146.18 1.72157L145.142 4.32728C144.577 4.05894 144.005 3.82591 143.426 3.62818C142.861 3.43046 142.304 3.3316 141.753 3.3316ZM161.406 16H157.762L153.801 9.62343L152.445 10.5979V16H149.246V0.874183H152.445V7.80155C152.657 7.50497 152.869 7.20838 153.081 6.9118C153.292 6.61521 153.504 6.31863 153.716 6.02205L157.805 0.874183H161.364L156.089 7.56852L161.406 16ZM168.568 0.874183C170.517 0.874183 171.936 1.29788 172.826 2.14526C173.73 2.97852 174.182 4.12955 174.182 5.59835C174.182 6.47398 173.998 7.30018 173.631 8.07695C173.264 8.8396 172.649 9.45395 171.788 9.92002C170.94 10.3861 169.782 10.6191 168.314 10.6191H166.937V16H163.738V0.874183H168.568ZM168.398 3.50108H166.937V7.99221H167.996C168.9 7.99221 169.613 7.81568 170.135 7.4626C170.672 7.0954 170.94 6.50929 170.94 5.70428C170.94 4.23548 170.093 3.50108 168.398 3.50108ZM191.191 8.41591C191.191 9.98357 190.93 11.3535 190.408 12.5257C189.899 13.6838 189.115 14.5877 188.056 15.2374C186.997 15.887 185.641 16.2118 183.989 16.2118C182.35 16.2118 180.995 15.887 179.921 15.2374C178.862 14.5877 178.071 13.6768 177.549 12.5045C177.04 11.3323 176.786 9.96238 176.786 8.39472C176.786 6.82706 177.04 5.46418 177.549 4.30609C178.071 3.148 178.862 2.25118 179.921 1.61565C180.995 0.965984 182.357 0.641153 184.01 0.641153C185.648 0.641153 186.997 0.965984 188.056 1.61565C189.115 2.25118 189.899 3.15506 190.408 4.32728C190.93 5.48537 191.191 6.84825 191.191 8.41591ZM180.154 8.41591C180.154 9.99769 180.458 11.2476 181.065 12.1656C181.673 13.0695 182.647 13.5214 183.989 13.5214C185.359 13.5214 186.34 13.0695 186.933 12.1656C187.527 11.2476 187.823 9.99769 187.823 8.41591C187.823 6.82 187.527 5.57011 186.933 4.66623C186.34 3.76235 185.366 3.31041 184.01 3.31041C182.654 3.31041 181.673 3.76235 181.065 4.66623C180.458 5.57011 180.154 6.82 180.154 8.41591ZM200.405 16H193.52V14.1781L195.363 13.3307V3.54345L193.52 2.69606V0.874183H200.405V2.69606L198.562 3.54345V13.3307L200.405 14.1781V16ZM216.816 16H212.748L206.16 4.56031H206.075C206.103 5.28058 206.132 6.00086 206.16 6.72114C206.202 7.44141 206.238 8.16169 206.266 8.88197V16H203.406V0.874183H207.452L214.019 12.208H214.083C214.069 11.5018 214.048 10.8027 214.019 10.1107C213.991 9.41865 213.963 8.72661 213.935 8.03458V0.874183H216.816V16ZM226.889 16H223.69V3.54345H219.58V0.874183H230.998V3.54345H226.889V16Z" fill="black"/>
</svg>
